<mxfile host="app.diagrams.net" modified="2023-11-01T11:49:37.257Z" agent="Mozilla/5.0 (Macintosh; Intel Mac OS X 10_15_7) AppleWebKit/605.1.15 (KHTML, like Gecko) Version/17.0 Safari/605.1.15" etag="21GG2CYVIpRrttHNIXUu" version="22.0.8" type="device">
  <diagram name="Page-1" id="ka4sckrkyvAku7VrfMju">
    <mxGraphModel dx="822" dy="783" grid="1" gridSize="10" guides="1" tooltips="1" connect="1" arrows="1" fold="1" page="1" pageScale="1" pageWidth="827" pageHeight="1169" math="0" shadow="0">
      <root>
        <mxCell id="0" />
        <mxCell id="1" parent="0" />
        <mxCell id="gEh4JOFmMZdMPStCANWQ-13" style="edgeStyle=orthogonalEdgeStyle;rounded=0;orthogonalLoop=1;jettySize=auto;html=1;exitX=0.5;exitY=0;exitDx=0;exitDy=0;exitPerimeter=0;" edge="1" parent="1" source="gEh4JOFmMZdMPStCANWQ-1" target="gEh4JOFmMZdMPStCANWQ-5">
          <mxGeometry relative="1" as="geometry" />
        </mxCell>
        <mxCell id="gEh4JOFmMZdMPStCANWQ-1" value="DB" style="shape=cylinder3;whiteSpace=wrap;html=1;boundedLbl=1;backgroundOutline=1;size=15;" vertex="1" parent="1">
          <mxGeometry x="690" y="530" width="60" height="80" as="geometry" />
        </mxCell>
        <mxCell id="gEh4JOFmMZdMPStCANWQ-2" value="Actor" style="shape=umlActor;verticalLabelPosition=bottom;verticalAlign=top;html=1;outlineConnect=0;" vertex="1" parent="1">
          <mxGeometry x="90" y="380" width="60" height="100" as="geometry" />
        </mxCell>
        <mxCell id="gEh4JOFmMZdMPStCANWQ-14" style="edgeStyle=orthogonalEdgeStyle;rounded=0;orthogonalLoop=1;jettySize=auto;html=1;exitX=0;exitY=0;exitDx=150;exitDy=40;exitPerimeter=0;entryX=0;entryY=0.5;entryDx=0;entryDy=0;dashed=1;" edge="1" parent="1" source="gEh4JOFmMZdMPStCANWQ-3" target="gEh4JOFmMZdMPStCANWQ-7">
          <mxGeometry relative="1" as="geometry" />
        </mxCell>
        <mxCell id="gEh4JOFmMZdMPStCANWQ-3" value="TandbÃ¸rsteholder" style="shape=cube;whiteSpace=wrap;html=1;boundedLbl=1;backgroundOutline=1;darkOpacity=0.05;darkOpacity2=0.1;" vertex="1" parent="1">
          <mxGeometry x="160" y="440" width="150" height="60" as="geometry" />
        </mxCell>
        <mxCell id="gEh4JOFmMZdMPStCANWQ-15" style="edgeStyle=orthogonalEdgeStyle;rounded=0;orthogonalLoop=1;jettySize=auto;html=1;exitX=0.92;exitY=0.5;exitDx=0;exitDy=0;exitPerimeter=0;dashed=1;" edge="1" parent="1" source="gEh4JOFmMZdMPStCANWQ-4" target="gEh4JOFmMZdMPStCANWQ-6">
          <mxGeometry relative="1" as="geometry" />
        </mxCell>
        <mxCell id="gEh4JOFmMZdMPStCANWQ-4" value="" style="verticalLabelPosition=bottom;html=1;verticalAlign=top;align=center;strokeColor=none;fillColor=#00BEF2;shape=mxgraph.azure.laptop;pointerEvents=1;" vertex="1" parent="1">
          <mxGeometry x="300" y="160" width="140" height="80" as="geometry" />
        </mxCell>
        <mxCell id="gEh4JOFmMZdMPStCANWQ-9" style="edgeStyle=orthogonalEdgeStyle;rounded=0;orthogonalLoop=1;jettySize=auto;html=1;exitX=0.5;exitY=0;exitDx=0;exitDy=0;" edge="1" parent="1" source="gEh4JOFmMZdMPStCANWQ-5" target="gEh4JOFmMZdMPStCANWQ-6">
          <mxGeometry relative="1" as="geometry" />
        </mxCell>
        <mxCell id="gEh4JOFmMZdMPStCANWQ-11" style="edgeStyle=orthogonalEdgeStyle;rounded=0;orthogonalLoop=1;jettySize=auto;html=1;exitX=0.5;exitY=1;exitDx=0;exitDy=0;" edge="1" parent="1" source="gEh4JOFmMZdMPStCANWQ-5" target="gEh4JOFmMZdMPStCANWQ-1">
          <mxGeometry relative="1" as="geometry" />
        </mxCell>
        <mxCell id="gEh4JOFmMZdMPStCANWQ-5" value="" style="image;aspect=fixed;perimeter=ellipsePerimeter;html=1;align=center;shadow=0;dashed=0;spacingTop=3;image=img/lib/active_directory/generic_server.svg;" vertex="1" parent="1">
          <mxGeometry x="692" y="397.5" width="56" height="100" as="geometry" />
        </mxCell>
        <mxCell id="gEh4JOFmMZdMPStCANWQ-6" value="" style="sketch=0;pointerEvents=1;shadow=0;dashed=0;html=1;strokeColor=none;fillColor=#505050;labelPosition=center;verticalLabelPosition=bottom;verticalAlign=top;outlineConnect=0;align=center;shape=mxgraph.office.concepts.website;" vertex="1" parent="1">
          <mxGeometry x="677.9" y="260" width="84.2" height="70" as="geometry" />
        </mxCell>
        <mxCell id="gEh4JOFmMZdMPStCANWQ-10" value="" style="edgeStyle=orthogonalEdgeStyle;rounded=0;orthogonalLoop=1;jettySize=auto;html=1;" edge="1" parent="1" source="gEh4JOFmMZdMPStCANWQ-7" target="gEh4JOFmMZdMPStCANWQ-5">
          <mxGeometry relative="1" as="geometry" />
        </mxCell>
        <mxCell id="gEh4JOFmMZdMPStCANWQ-7" value="" style="image;html=1;image=img/lib/clip_art/networking/Router_Icon_128x128.png" vertex="1" parent="1">
          <mxGeometry x="510" y="415" width="80" height="65" as="geometry" />
        </mxCell>
        <mxCell id="gEh4JOFmMZdMPStCANWQ-16" value="Raspberry Pi / Microcontroller" style="rounded=1;whiteSpace=wrap;html=1;" vertex="1" parent="1">
          <mxGeometry x="190" y="510" width="110" height="30" as="geometry" />
        </mxCell>
        <mxCell id="gEh4JOFmMZdMPStCANWQ-17" style="edgeStyle=orthogonalEdgeStyle;rounded=0;orthogonalLoop=1;jettySize=auto;html=1;exitX=0.5;exitY=0;exitDx=0;exitDy=0;entryX=0;entryY=0;entryDx=85;entryDy=60;entryPerimeter=0;" edge="1" parent="1" source="gEh4JOFmMZdMPStCANWQ-16" target="gEh4JOFmMZdMPStCANWQ-3">
          <mxGeometry relative="1" as="geometry" />
        </mxCell>
        <mxCell id="gEh4JOFmMZdMPStCANWQ-20" style="edgeStyle=orthogonalEdgeStyle;rounded=0;orthogonalLoop=1;jettySize=auto;html=1;exitX=0.5;exitY=0;exitDx=0;exitDy=0;entryX=0.5;entryY=1;entryDx=0;entryDy=0;" edge="1" parent="1" source="gEh4JOFmMZdMPStCANWQ-19" target="gEh4JOFmMZdMPStCANWQ-16">
          <mxGeometry relative="1" as="geometry" />
        </mxCell>
        <mxCell id="gEh4JOFmMZdMPStCANWQ-19" value="Kamera" style="rounded=1;whiteSpace=wrap;html=1;" vertex="1" parent="1">
          <mxGeometry x="190" y="555" width="110" height="30" as="geometry" />
        </mxCell>
        <mxCell id="gEh4JOFmMZdMPStCANWQ-25" style="edgeStyle=orthogonalEdgeStyle;rounded=0;orthogonalLoop=1;jettySize=auto;html=1;exitX=0.5;exitY=0;exitDx=0;exitDy=0;entryX=0.5;entryY=1;entryDx=0;entryDy=0;" edge="1" parent="1" source="gEh4JOFmMZdMPStCANWQ-21" target="gEh4JOFmMZdMPStCANWQ-19">
          <mxGeometry relative="1" as="geometry" />
        </mxCell>
        <mxCell id="gEh4JOFmMZdMPStCANWQ-21" value="Lyssensor" style="rounded=1;whiteSpace=wrap;html=1;" vertex="1" parent="1">
          <mxGeometry x="190" y="600" width="110" height="30" as="geometry" />
        </mxCell>
        <mxCell id="gEh4JOFmMZdMPStCANWQ-26" style="edgeStyle=orthogonalEdgeStyle;rounded=0;orthogonalLoop=1;jettySize=auto;html=1;exitX=0.5;exitY=0;exitDx=0;exitDy=0;entryX=0.5;entryY=1;entryDx=0;entryDy=0;" edge="1" parent="1" source="gEh4JOFmMZdMPStCANWQ-22" target="gEh4JOFmMZdMPStCANWQ-21">
          <mxGeometry relative="1" as="geometry" />
        </mxCell>
        <mxCell id="gEh4JOFmMZdMPStCANWQ-22" value="LED" style="rounded=1;whiteSpace=wrap;html=1;" vertex="1" parent="1">
          <mxGeometry x="190" y="640" width="110" height="30" as="geometry" />
        </mxCell>
        <mxCell id="gEh4JOFmMZdMPStCANWQ-27" style="edgeStyle=orthogonalEdgeStyle;rounded=0;orthogonalLoop=1;jettySize=auto;html=1;exitX=0.5;exitY=0;exitDx=0;exitDy=0;entryX=0.5;entryY=1;entryDx=0;entryDy=0;" edge="1" parent="1" source="gEh4JOFmMZdMPStCANWQ-23" target="gEh4JOFmMZdMPStCANWQ-22">
          <mxGeometry relative="1" as="geometry" />
        </mxCell>
        <mxCell id="gEh4JOFmMZdMPStCANWQ-23" value="Buzzer" style="rounded=1;whiteSpace=wrap;html=1;" vertex="1" parent="1">
          <mxGeometry x="190" y="680" width="110" height="30" as="geometry" />
        </mxCell>
        <mxCell id="gEh4JOFmMZdMPStCANWQ-24" style="edgeStyle=orthogonalEdgeStyle;rounded=0;orthogonalLoop=1;jettySize=auto;html=1;entryX=0;entryY=0;entryDx=65;entryDy=0;entryPerimeter=0;dashed=1;" edge="1" parent="1" source="gEh4JOFmMZdMPStCANWQ-6" target="gEh4JOFmMZdMPStCANWQ-3">
          <mxGeometry relative="1" as="geometry" />
        </mxCell>
        <mxCell id="gEh4JOFmMZdMPStCANWQ-30" value="Internet" style="ellipse;shape=cloud;whiteSpace=wrap;html=1;" vertex="1" parent="1">
          <mxGeometry x="354" y="415" width="120" height="80" as="geometry" />
        </mxCell>
        <mxCell id="gEh4JOFmMZdMPStCANWQ-31" value="Internet" style="ellipse;shape=cloud;whiteSpace=wrap;html=1;" vertex="1" parent="1">
          <mxGeometry x="354" y="260" width="120" height="80" as="geometry" />
        </mxCell>
        <mxCell id="gEh4JOFmMZdMPStCANWQ-32" value="Internet" style="ellipse;shape=cloud;whiteSpace=wrap;html=1;" vertex="1" parent="1">
          <mxGeometry x="558" y="160" width="120" height="80" as="geometry" />
        </mxCell>
        <mxCell id="gEh4JOFmMZdMPStCANWQ-33" value="Raspberry Pi Server" style="rounded=1;whiteSpace=wrap;html=1;" vertex="1" parent="1">
          <mxGeometry x="750" y="425" width="60" height="60" as="geometry" />
        </mxCell>
        <mxCell id="gEh4JOFmMZdMPStCANWQ-34" value="Website" style="rounded=1;whiteSpace=wrap;html=1;" vertex="1" parent="1">
          <mxGeometry x="762.1" y="265" width="60" height="60" as="geometry" />
        </mxCell>
        <mxCell id="gEh4JOFmMZdMPStCANWQ-35" value="IP: ???" style="rounded=1;whiteSpace=wrap;html=1;" vertex="1" parent="1">
          <mxGeometry x="510" y="485" width="80" height="35" as="geometry" />
        </mxCell>
      </root>
    </mxGraphModel>
  </diagram>
</mxfile>
